<svg viewBox="0 0 1363 375" xmlns="http://www.w3.org/2000/svg" xml:space="preserve" style="fill-rule:evenodd;clip-rule:evenodd;stroke-linejoin:round;stroke-miterlimit:2"><path style="fill:#9e1e63;fill-rule:nonzero" d="M0 3.407h8.889v59.854H0zm43.797 45.849v3.834c0 6.781-3.55 10.171-10.649 10.171h-5.741c-7.099 0-10.648-3.39-10.648-10.171V13.577c0-6.78 3.549-10.17 10.648-10.17h5.741c7.099 0 10.649 3.39 10.649 10.17v6.752h-8.889v-6.168c0-2.335-1.328-3.502-3.982-3.502h-1.759c-2.347 0-3.519 1.167-3.519 3.502v38.346c0 2.334 1.172 3.501 3.519 3.501h2.222c2.345 0 3.519-1.167 3.519-3.501v-3.251h8.889Zm33.52 0v3.834c0 6.781-3.55 10.171-10.649 10.171h-5.741c-7.099 0-10.648-3.39-10.648-10.171V13.577c0-6.78 3.549-10.17 10.648-10.17h5.741c7.099 0 10.649 3.39 10.649 10.17v6.752h-8.889v-6.168c0-2.335-1.328-3.502-3.982-3.502h-1.759c-2.347 0-3.519 1.167-3.519 3.502v38.346c0 2.334 1.172 3.501 3.519 3.501h2.222c2.345 0 3.519-1.167 3.519-3.501v-3.251h8.889ZM113.06 3.407l-10.742 59.854H91.762L81.021 3.407h8.796l7.223 45.682 7.223-45.682h8.797Zm103.696 30.775V20.079h-4.868v14.103h-3.961V3.122h3.961v13.194h4.868V3.122h3.96v31.06h-3.96Zm13.201-3.764h2.022c1.044 0 1.567-.606 1.567-1.817V8.703c0-1.211-.592-1.817-1.774-1.817h-1.856c-1.155 0-1.733.606-1.733 1.817v19.898c0 1.211.591 1.817 1.774 1.817Zm-.949 3.764c-3.191 0-4.785-1.759-4.785-5.278V8.443c0-3.547 1.581-5.321 4.744-5.321h3.796c3.162 0 4.744 1.774 4.744 5.321v20.461c0 3.519-1.596 5.278-4.786 5.278h-3.713Zm20.215-16.049V3.122h3.961v31.06h-3.961v-6.187l-4.249-14.145v20.332h-3.961V3.122h3.961l4.249 15.011Zm13.202 12.285h2.021c1.045 0 1.568-.606 1.568-1.817V8.703c0-1.211-.592-1.817-1.774-1.817h-1.856c-1.155 0-1.734.606-1.734 1.817v19.898c0 1.211.592 1.817 1.775 1.817Zm-.949 3.764c-3.191 0-4.786-1.759-4.786-5.278V8.443c0-3.547 1.581-5.321 4.745-5.321h3.795c3.163 0 4.745 1.774 4.745 5.321v20.461c0 3.519-1.596 5.278-4.787 5.278h-3.712Zm21.411 0h-9.407V3.122h3.961v27.296h5.446v3.764Zm15.14-31.06v25.177c0 3.922-1.595 5.883-4.786 5.883h-3.342c-3.163 0-4.744-1.976-4.744-5.927V3.122h3.961v25.263c0 1.356.577 2.033 1.733 2.033h1.609c1.072 0 1.608-.677 1.608-2.033V3.122h3.961Zm13.12 31.06h-9.407V3.122h3.961v27.296h5.446v3.764Zm15.14-31.06v25.177c0 3.922-1.596 5.883-4.786 5.883h-3.342c-3.163 0-4.744-1.976-4.744-5.927V3.122h3.961v25.263c0 1.356.577 2.033 1.732 2.033h1.61c1.072 0 1.608-.677 1.608-2.033V3.122h3.961ZM220.236 85.888V65.872h-6.909v20.016h-5.622V41.804h5.622v18.727h6.909V41.804h5.621v44.084h-5.621Zm23.013-21.489V49.724c0-1.719-.82-2.578-2.46-2.578h-1.522c-1.64 0-2.459.859-2.459 2.578v14.675h6.441Zm-6.441 21.489h-5.622V49.356c0-5.035 2.245-7.552 6.734-7.552h4.216c4.489 0 6.734 2.517 6.734 7.552v36.532h-5.621V69.741h-6.441v16.147Zm46.948-44.084-6.207 44.084h-6.09l-3.455-25.542-3.396 25.542h-6.09l-6.207-44.084h5.563l3.981 33.032 3.983-33.032h4.391l3.982 33.032 3.982-33.032h5.563Zm14.757 22.595V49.724c0-1.719-.821-2.578-2.46-2.578h-1.523c-1.639 0-2.459.859-2.459 2.578v14.675h6.442Zm-6.442 21.489h-5.622V49.356c0-5.035 2.245-7.552 6.735-7.552h4.215c4.49 0 6.735 2.517 6.735 7.552v36.532h-5.621V69.741h-6.442v16.147Zm17.39-44.084h5.622v44.084h-5.622zm11.242 0h5.622v44.084h-5.622zM3.463 83.76h1.2c.621 0 .931-.343.931-1.028V71.461c0-.685-.351-1.029-1.053-1.029H3.438c-.686 0-1.029.344-1.029 1.029v11.271c0 .685.351 1.028 1.054 1.028Zm-.564 2.132c-1.895 0-2.842-.996-2.842-2.989V71.315c0-2.01.939-3.014 2.818-3.014h2.253c1.879 0 2.818 1.004 2.818 3.014v11.588c0 1.993-.947 2.989-2.842 2.989H2.899Zm14.161-4.116v1.127c0 1.993-.94 2.989-2.818 2.989h-1.519c-1.878 0-2.817-.996-2.817-2.989V71.29c0-1.993.939-2.989 2.817-2.989h1.519c1.878 0 2.818.996 2.818 2.989v1.985h-2.352v-1.814c0-.685-.352-1.029-1.054-1.029h-.465c-.621 0-.931.344-.931 1.029v11.271c0 .685.31 1.028.931 1.028h.588c.621 0 .931-.343.931-1.028v-.956h2.352Zm5.586-11.344v15.46h-2.352v-15.46H18.04v-2.131h6.86v2.131h-2.254Zm7.325 1.765-.539-1.618a4.469 4.469 0 0 0 1.544-.956 5.065 5.065 0 0 0 1.004-1.322h.245l1.544.833v16.758h-2.328V71.755l-1.47.442Zm10.951 5.12v-5.831c0-.702-.384-1.054-1.151-1.054h-.27c-.702 0-1.053.352-1.053 1.054v4.557c0 .849.351 1.274 1.053 1.274h1.421Zm-2.327 4.459v.711c0 .849.351 1.273 1.053 1.273h.343c.621 0 .931-.343.931-1.028v-4.264l-1.47.981h-.539c-1.878 0-2.817-1.045-2.817-3.136v-4.925c0-2.058.939-3.087 2.817-3.087h1.544c1.878 0 2.817 1.029 2.817 3.087v11.368c0 2.091-.939 3.136-2.817 3.136H39.06c-1.878 0-2.817-1.045-2.817-3.136v-.98h2.352Zm6.075-4.729h5.391v1.96H44.67zm13.328 6.738v2.107h-6.321v-5.414c0-.295.025-.539.074-.735.048-.197.134-.38.257-.552.122-.171.339-.412.649-.723l2.377-2.278c.179-.18.322-.334.428-.466.106-.13.18-.24.221-.33a.864.864 0 0 0 .073-.282c.008-.098.013-.229.013-.392v-3.259c0-.685-.335-1.029-1.005-1.029h-.147c-.67 0-1.005.344-1.005 1.029v1.814h-2.351v-1.96c0-2.01.939-3.014 2.817-3.014h1.225c1.878 0 2.818 1.004 2.818 3.014v4.214c0 .327-.046.612-.135.857-.09.245-.323.547-.698.906l-2.598 2.499c-.326.311-.514.524-.563.637-.049.115-.078.23-.086.344a7.01 7.01 0 0 0-.012.465v2.548h3.969Zm7.717-6.933c1.225.326 1.838 1.069 1.838 2.229v3.822c0 1.993-.94 2.989-2.818 2.989h-1.592c-1.879 0-2.818-.996-2.818-2.989v-1.127h2.352v.956c0 .685.31 1.028.931 1.028h.539c.702 0 1.054-.343 1.054-1.028v-3.626c0-.768-.458-1.153-1.372-1.153h-.638v-1.984h.344c.914 0 1.372-.383 1.372-1.151v-3.332c0-.686-.352-1.029-1.054-1.029h-.318c-.621 0-.931.343-.931 1.029v1.789h-2.352v-1.96c0-2.01.938-3.014 2.817-3.014h1.372c1.878 0 2.817 1.004 2.817 3.014v3.503c0 1.111-.514 1.789-1.543 2.034Zm3.577 11.955 1.127-2.915h-1.152v-3.038h2.622v3.038l-1.176 2.915h-1.421Zm14.896-5.022v2.107h-6.321v-5.414c0-.295.024-.539.073-.735.049-.197.135-.38.257-.552.123-.171.339-.412.65-.723l2.376-2.278c.179-.18.322-.334.429-.466.106-.13.179-.24.22-.33a.84.84 0 0 0 .074-.282c.008-.098.012-.229.012-.392v-3.259c0-.685-.335-1.029-1.004-1.029h-.147c-.67 0-1.005.344-1.005 1.029v1.814H77.45v-1.96c0-2.01.939-3.014 2.818-3.014h1.225c1.878 0 2.817 1.004 2.817 3.014v4.214c0 .327-.045.612-.135.857-.09.245-.322.547-.698.906l-2.597 2.499c-.327.311-.515.524-.564.637-.048.115-.077.23-.085.344a6.281 6.281 0 0 0-.013.465v2.548h3.97Zm5.781-13.353c-.621 0-.931.344-.931 1.029v11.271c0 .685.351 1.028 1.053 1.028h.589c.62 0 .93-.343.93-1.028V71.461c0-.685-.351-1.029-1.053-1.029h-.588Zm-.466 15.46c-1.878 0-2.817-1.005-2.817-3.014V71.315c0-2.01.939-3.014 2.817-3.014h1.642c1.878 0 2.817 1.004 2.817 3.014v11.563c0 2.009-.939 3.014-2.817 3.014h-1.642Zm13.206-2.107v2.107h-6.321v-5.414c0-.295.025-.539.073-.735.049-.197.135-.38.258-.552.122-.171.339-.412.649-.723l2.377-2.278c.179-.18.322-.334.429-.466.106-.13.179-.24.22-.33a.865.865 0 0 0 .074-.282c.008-.098.012-.229.012-.392v-3.259c0-.685-.335-1.029-1.005-1.029h-.147c-.67 0-1.005.344-1.005 1.029v1.814h-2.351v-1.96c0-2.01.939-3.014 2.817-3.014h1.226c1.878 0 2.817 1.004 2.817 3.014v4.214c0 .327-.045.612-.135.857-.09.245-.322.547-.698.906l-2.598 2.499c-.326.311-.514.524-.563.637-.049.115-.078.23-.086.344a7.01 7.01 0 0 0-.012.465v2.548h3.969Zm2.376-2.009h2.353v.956c0 .685.31 1.028.931 1.028h.269c.702 0 1.053-.343 1.053-1.028v-4.019c0-.767-.326-1.151-.98-1.151h-3.552v-9.261h6.639v2.181h-4.434v4.948h1.862c1.878 0 2.817 1.038 2.817 3.112v4.239c0 2.074-.939 3.111-2.817 3.111h-1.323c-1.879 0-2.818-.996-2.818-2.989v-1.127Z" transform="scale(4.16667)"/><path d="M151.507 1.808c3.488-1.114 6.178-.63 7.866 1.156 1.689 1.787 5.59 2.521 6.99 4.535 2.099 3.02 4.319 2.413 5.656 4.259 2.37 3.272 1.186 4.803.764 6.912-.329 1.644.053 2.998-.582 4.152-1.267 1.294-3.027 3.726-4.603 5.759-.801 1.034-1.785 2.462-2.625 3.659-.179.257-.584.08-.515-.225a3.1 3.1 0 0 0 .057-.303c.404-3.423-.524-5.591-.616-5.059-.083.481.032 1.12-1.071 4.803s-2.902 6.582-3.404 6.952c-.503.371-.355-.215-.22-3.242.178-3.999-.38-9.539-1.209-12.404-1.137-3.928-3.41-8.068-2.767-5.286 1.146 4.955 1.368 7.875.934 16.686-.241 4.886-.937 6.38-1.327 7.234-.271.592-.952 1.514-1.081.935-.517-2.319-1.243-4.728-2.096-6.791-.242-.375-.533-.625-.349.079l.013.06a35.27 35.27 0 0 1 1.243 4.627c.374 1.859.133 2.989-.243 2.402-.34-.53-4.321-6.324-7.194-8.799-1.984-1.71-3.681-1.572-2.691-.765 1.2.977 3.264 3.766 3.951 4.614.687.848 1.353 2.051-.256 1.106-1.608-.944-5.91-2.859-9.435-3.881-3.525-1.021-4.625-.572-3.604-.248 1.022.325 6.286 2.52 11.629 6.339 3.739 2.674 6.469 5.386 7.328 7.392-.013.016-.029.031-.044.046l.061.01c-4.417 2.987-9.542 6.388-9.834 6.965-.312.618 2.122.037 5.41-1.039 3.288-1.075 5.409-2.07 5.46-1.569.05.501-.957 2.491-3.994 5.675-3.81 3.995-7.49 7.333-9.192 8.538-1.132.8-2.544 1.889-1.263 1.486 1.28-.402 7.01-2.721 12.069-7.004 2.607-2.207 3.976-4.29 5.25-6.575.044-.395.077-.499.262-.535.373-.074 2.087 2.643 3.357 5.759 2.028 4.972 2.65 7.79 3.215 8 .367.137.232-3.563-.509-6.174-.92-3.244-1.738-5.588-1.303-5.821.725-.385 3.796 3.377 4.918 5.144 3.087 4.866 3.965 7.07 4.933 9.697.551 1.493 1.384 3.214 1.45 1.716.086-1.942-.773-8.496-4.952-14.537-1.706-2.465-2.84-3.821-4.097-5.116a13.26 13.26 0 0 1-1.095-1.092l-.19-.185.035-.002c-.193-.241-.32-.445-.342-.581-.063-.398-.389-2.002 6.455-2.522 2.842-.216 5.924.195 8.29.788 1.476.369-1.777-2.639-4.978-3.632-2.899-.9-4.612-1.205-4.627-1.715-.016-.511 1.281-1.18 5.384-2.705 3.495-1.299 5.605-1.728 8.036-1.84 1.576-.072 1.037-.786-1.957-1.3-1.629-.28-4.166-.668-7.728-.208-1.549.199-3.095.654-4.491 1.197-.306.494-.61.99-.913 1.492-3.786 6.268-5.429 8.836-7.739 6.962-1.671-1.356-1.252-2.947-.078-4.797 1.175-1.85 7.121-9.179 15.014-18.158 7.893-8.978 21.13-18.032 21.441-18.157.416-.166.638.275.193.784-.33.378-6.719 6.071-11.338 10.629-4.055 4-7.842 8.505-11.416 13.488a27.603 27.603 0 0 1 3.178-2.259c5.146-3.107 11.016-4.808 14.704-2.836 5.131 2.744 7.105 3.417 8.329 5.873 1.336 2.683 1.436 4.418.418 6.997-1.018 2.578-2.568 2.274-1.552 5.46.975 3.057 2.11 6.533 1.6 8.513-.51 1.98-.964 3.913-3.409 5.042-1.303.601-2.596 1.527-3.056 3.13-.475 1.658-1.899 2.912-3.351 3.618-.458.222-2.588-.103-3.046-.59-2.08-2.067-5.189-5.547-8.261-7.44a15.066 15.066 0 0 0-2.298-1.136c.703.466 1.415.996 2.135 1.606 3.893 3.302 8.509 8.466 8.705 11.872.196 3.405.103 4.861-.825 6.676-.927 1.815-1.277 4.3-1.421 6.436-.144 2.136-2.684 5.551-4.851 6.557-2.166 1.004-5.65-.557-10.312.603-3.307.821-5.575-.068-7.361-2.35-1.787-2.283-3.581-2.947-4.77-2.854-1.19.093-2.568.147-3.739-1.846-.404-.686-.76-2.112-.631-2.499.551-1.544 1.805-3.148 2.284-4.255.729-1.681 1.148-4.491 1.579-7.932.143-1.149.245-2.085.314-2.881-.661 4.074-2.002 8.526-4.43 12.054-3.049 4.431-5.113 6.353-7.102 5.909-1.504-.335-2.485-.762-4.675.778-2.294 1.614-3.577.024-7.88.318-2.058.141-4.893-3.549-5.909-6.415-1.339-3.776-5.357-5.914-5.77-9.168-.638-5.018 3.563-7.35 4.359-10.161.904-3.195 5.154-4.993 7.715-6.287 3.246-1.642 5.904-2.709 8.172-3.365-.453.043-.906.094-1.358.155-5.293.715-8.421 2.297-10.929 2.005-2.508-.292-7.213-1.423-9.002-3.566-1.789-2.143-2.431-5.479-1.961-7.181.47-1.701.035-3.673-.529-6.651-.563-2.977.505-5.375 2.19-6.687 1.684-1.312 4.553-2.791 5.582-5.368 1.029-2.577 4.315-3.021 5.837-2.511 1.523.51 2.489.991 5.247.288 2.607-.665 5.224-.538 10.154 5.932-1.392-2.035-2.432-3.692-2.837-5.221-.875-3.3-2.245-4.006-2.005-7.348.241-3.343 2.547-3.878 4.903-5.035 2.357-1.158 2.681-4.635 6.169-5.75Z" style="fill:url(#a)" transform="scale(4.16667)"/><path d="M190.108 3.132c.498-1.1 1.714-1.483 2.842-.909 1.067.543 1.515 1.767.967 2.841-.542 1.064-1.798 1.451-2.913.952-1.095-.489-1.394-1.783-.896-2.884Z" style="fill:url(#b)" transform="scale(4.16667)"/><path d="M188.689 13.477c.498-1.1 1.714-1.483 2.842-.909 1.067.543 1.515 1.767.967 2.841-.542 1.064-1.798 1.451-2.914.953-1.094-.489-1.393-1.783-.895-2.885Z" style="fill:url(#c)" transform="scale(4.16667)"/><path d="M192.914 10.15c.497-1.1 1.714-1.482 2.842-.908 1.067.542 1.514 1.766.967 2.841-.542 1.063-1.798 1.45-2.914.952-1.094-.489-1.393-1.783-.895-2.885Z" style="fill:url(#d)" transform="scale(4.16667)"/><path d="M188.105 8.57c-1.013.073-1.753-.773-1.822-1.795-.069-1.02.686-1.792 1.757-1.815 1.014-.022 1.838.713 1.859 1.733.021 1.011-.762 1.803-1.794 1.877Z" style="fill:url(#e)" transform="scale(4.16667)"/><path d="M196.298 7.908c-.667-.854-.558-2.026.267-2.718.825-.691 2.078-.623 2.754.252.662.857.632 2.098-.235 2.755-.859.65-2.093.598-2.786-.289Z" style="fill:url(#f)" transform="scale(4.16667)"/><path d="M195.023 3.365c-.667-.854-.581-2.113.244-2.805.826-.692 2.056-.686 2.732.189.662.857.693 2.263-.213 2.817-.918.562-2.07.686-2.763-.201Z" style="fill:url(#g)" transform="scale(4.16667)"/><path d="M186.572 10.47c-.31 1.122-1.405 1.889-2.583 1.582-1.133-.295-1.81-1.372-1.556-2.508.255-1.136 1.375-1.901 2.53-1.594 1.132.301 1.922 1.387 1.609 2.52Z" style="fill:url(#h)" transform="scale(4.16667)"/><defs><linearGradient id="a" x1="0" y1="0" x2="1" y2="0" gradientUnits="userSpaceOnUse" gradientTransform="translate(116.116 45.606) scale(82.4003)"><stop offset="0" style="stop-color:#9f1e63;stop-opacity:1"/><stop offset=".6" style="stop-color:#e45237;stop-opacity:1"/><stop offset="1" style="stop-color:#f15a29;stop-opacity:1"/></linearGradient><linearGradient id="b" x1="0" y1="0" x2="1" y2="0" gradientUnits="userSpaceOnUse" gradientTransform="translate(189.875 4.094) scale(4.277)"><stop offset="0" style="stop-color:#9f1e63;stop-opacity:1"/><stop offset=".6" style="stop-color:#e45237;stop-opacity:1"/><stop offset="1" style="stop-color:#f15a29;stop-opacity:1"/></linearGradient><linearGradient id="c" x1="0" y1="0" x2="1" y2="0" gradientUnits="userSpaceOnUse" gradientTransform="translate(188.456 14.44) scale(4.27698)"><stop offset="0" style="stop-color:#9f1e63;stop-opacity:1"/><stop offset=".6" style="stop-color:#e45237;stop-opacity:1"/><stop offset="1" style="stop-color:#f15a29;stop-opacity:1"/></linearGradient><linearGradient id="d" x1="0" y1="0" x2="1" y2="0" gradientUnits="userSpaceOnUse" gradientTransform="translate(192.68 11.113) scale(4.27697)"><stop offset="0" style="stop-color:#9f1e63;stop-opacity:1"/><stop offset=".6" style="stop-color:#e45237;stop-opacity:1"/><stop offset="1" style="stop-color:#f15a29;stop-opacity:1"/></linearGradient><linearGradient id="e" x1="0" y1="0" x2="1" y2="0" gradientUnits="userSpaceOnUse" gradientTransform="translate(186.278 6.766) scale(3.62091)"><stop offset="0" style="stop-color:#9f1e63;stop-opacity:1"/><stop offset=".6" style="stop-color:#e45237;stop-opacity:1"/><stop offset="1" style="stop-color:#f15a29;stop-opacity:1"/></linearGradient><linearGradient id="f" x1="0" y1="0" x2="1" y2="0" gradientUnits="userSpaceOnUse" gradientTransform="translate(195.863 6.679) scale(3.91628)"><stop offset="0" style="stop-color:#9f1e63;stop-opacity:1"/><stop offset=".6" style="stop-color:#e45237;stop-opacity:1"/><stop offset="1" style="stop-color:#f15a29;stop-opacity:1"/></linearGradient><linearGradient id="g" x1="0" y1="0" x2="1" y2="0" gradientUnits="userSpaceOnUse" gradientTransform="translate(194.579 2.037) scale(3.90396)"><stop offset="0" style="stop-color:#9f1e63;stop-opacity:1"/><stop offset=".6" style="stop-color:#e45237;stop-opacity:1"/><stop offset="1" style="stop-color:#f15a29;stop-opacity:1"/></linearGradient><linearGradient id="h" x1="0" y1="0" x2="1" y2="0" gradientUnits="userSpaceOnUse" gradientTransform="translate(182.38 10) scale(4.26056)"><stop offset="0" style="stop-color:#9f1e63;stop-opacity:1"/><stop offset=".6" style="stop-color:#e45237;stop-opacity:1"/><stop offset="1" style="stop-color:#f15a29;stop-opacity:1"/></linearGradient></defs></svg>